<?xml version="1.0" encoding="utf-8"?>
<!-- Generator: Adobe Illustrator 27.3.1, SVG Export Plug-In . SVG Version: 6.00 Build 0)  -->
<svg version="1.1" id="Layer_1" xmlns="http://www.w3.org/2000/svg" xmlns:xlink="http://www.w3.org/1999/xlink" x="0px" y="0px"
	 viewBox="0 0 120 120" style="enable-background:new 0 0 120 120;" xml:space="preserve">
<style type="text/css">
	.st0{fill:#454760;stroke:#454760;stroke-width:0.3;}
</style>
<path class="st0" d="M-24.1,62.5c1-0.8,1.5-2.1,1.2-3.4l-6.9-28.3c-0.2-0.7-0.9-1.2-1.6-1c-0.7,0.2-1.2,0.9-1,1.6l6.9,28.3
	c0.1,0.3-0.1,0.6-0.4,0.7l-8.8,2.7c-0.3,0.1-0.7-0.1-0.8-0.4l-8.9-23.6V0.9c3.4,2,5.9,5.3,6.8,9.1l3.9,16.1c0.5,1.7,3,1.1,2.6-0.6
	l-3.9-16.1C-36.2,4-40-0.4-45.2-2.5c-0.1,0-9.1-3.6-9.1-3.6l-1.1-2.7c-0.9-2.4-3.3-4-5.8-4h-15.6c-2.5,0-4.9,1.6-5.8,4l-1.1,2.7
	c0,0-9,3.6-9.1,3.6c-5.1,2.1-9,6.6-10.3,11.9l-8.4,34.7c-0.2,0.7,0.3,1.5,1,1.6c0.1,0,0.2,0,0.3,0c0.6,0,1.2-0.4,1.3-1l8.4-34.7
	c0.9-3.9,3.4-7.2,6.8-9.1v8.5c0,0.7,0.6,1.4,1.4,1.4c0.7,0,1.4-0.6,1.4-1.4v-9.8l7.9-3.1l12.6,12.6v56.3h-19c-0.8,0-1.5-0.7-1.5-1.5
	v-49c0-0.7-0.6-1.4-1.4-1.4c-0.7,0-1.4,0.6-1.4,1.4v24.3l-8.9,23.6c-0.1,0.3-0.5,0.5-0.8,0.4l-8.8-2.7c-0.3-0.1-0.5-0.4-0.4-0.7
	l2.4-9.7c0.2-0.7-0.3-1.5-1-1.6c-0.7-0.2-1.5,0.3-1.6,1l-2.4,9.7c-0.3,1.3,0.2,2.6,1.2,3.4l-0.9,3.4c-0.5,1.7,0.5,3.4,2.2,3.9
	l4.9,1.4c1.6,0.5,3.3-0.4,3.9-2l1.1-3.3c1.2-0.1,2.3-0.9,2.8-2.1l6.3-16.9v17c0,2,1.5,3.7,3.4,4.1v3.3c0,1.7,1.4,3.2,3.2,3.2h18h18
	c1.7,0,3.2-1.4,3.2-3.2V68c1.9-0.4,3.4-2.1,3.4-4.1v-17l6.3,16.9c0.5,1.2,1.6,2,2.8,2.1l1.1,3.3c0.5,1.6,2.3,2.5,3.9,2l4.9-1.4
	c1.7-0.5,2.6-2.2,2.2-3.9L-24.1,62.5z M-106.8,68.6l-4.9-1.4c-0.2-0.1-0.4-0.3-0.3-0.6l0.8-3.1l5.9,1.8l-1,3
	C-106.3,68.5-106.6,68.6-106.8,68.6z M-58.4-8.9c0.3,0.3,0.5,0.6,0.6,1l0.9,2.5L-67.2,4.9c0.3-1.4,0.7-2.7,1.2-4.1
	c1-2.4,2.5-4.6,4.3-6.5L-58.4-8.9z M-61.1-10.1C-61.1-10.1-61-10.1-61.1-10.1l-2.5,2.6c-2.1,2.1-3.8,4.6-4.9,7.4
	c-0.1,0.3-0.3,0.6-0.4,1c-0.1-0.3-0.2-0.7-0.4-1c-1.1-2.8-2.8-5.3-4.9-7.4l-2.6-2.6c0,0,0,0,0.1,0H-61.1z M-80-7.9
	c0.1-0.4,0.4-0.7,0.6-1l3.3,3.3c1.9,1.9,3.3,4.1,4.3,6.5c0.5,1.3,0.9,2.7,1.2,4.1L-80.9-5.4L-80-7.9z M-87.3,71.2V68h17.1v3.7h-16.7
	C-87.1,71.7-87.3,71.5-87.3,71.2z M-50.9,71.7h-16.7V68h17.1v3.2C-50.4,71.5-50.6,71.7-50.9,71.7z M-47,63.9c0,0.8-0.7,1.5-1.5,1.5
	h-19V9.1L-55-3.5l7.9,3.1L-47,63.9L-47,63.9z M-26.1,67.2l-4.9,1.4c-0.2,0.1-0.5-0.1-0.6-0.3l-1-3l5.9-1.8l0.8,3.1
	C-25.7,66.8-25.8,67.1-26.1,67.2z"/>
<path class="st0" d="M-64,15.2c-0.7,0-1.4,0.6-1.4,1.4v1.3c0,0.7,0.6,1.4,1.4,1.4c0.7,0,1.4-0.6,1.4-1.4v-1.3
	C-62.7,15.8-63.3,15.2-64,15.2z"/>
<path class="st0" d="M-64,28.3c-0.7,0-1.4,0.6-1.4,1.4v1.3c0,0.7,0.6,1.4,1.4,1.4c0.7,0,1.4-0.6,1.4-1.4v-1.3
	C-62.7,28.9-63.3,28.3-64,28.3z"/>
<path class="st0" d="M-64,41.4c-0.7,0-1.4,0.6-1.4,1.4v1.3c0,0.7,0.6,1.4,1.4,1.4c0.7,0,1.4-0.6,1.4-1.4v-1.3
	C-62.7,42.1-63.3,41.4-64,41.4z"/>
<path class="st0" d="M-64,54.6c-0.7,0-1.4,0.6-1.4,1.4v1.3c0,0.7,0.6,1.4,1.4,1.4c0.7,0,1.4-0.6,1.4-1.4v-1.3
	C-62.7,55.2-63.3,54.6-64,54.6z"/>
<path class="st0" d="M-87.5,56.8c0.3,0,0.6-0.1,0.9-0.3c0.2-0.2,4.7-4.3,5.8-12.4c0.1-0.7-0.4-1.4-1.2-1.5c-0.7-0.1-1.4,0.4-1.5,1.2
	c-0.5,3.7-1.8,6.4-2.8,8c-1.1,1.8-2.1,2.7-2.1,2.7C-89.3,55.3-88.7,56.8-87.5,56.8z"/>
<path class="st0" d="M-55.8,42.5c-0.7,0.1-1.3,0.8-1.2,1.5c1.1,8.1,5.6,12.2,5.8,12.4c1.4,1.1,3.1-0.8,1.8-2c0,0-1-0.9-2.1-2.7
	c-1-1.6-2.3-4.3-2.8-8C-54.4,43-55.1,42.4-55.8,42.5z"/>
<path d="M-19.6,47.8c35.3,0,64-23.3,64-52c0-4.4-3.6-8-8-8s-8,3.6-8,8c0,17.8-17.3,32.6-40,35.5V5.9c0.8-0.4,1.7-0.9,2.4-1.5
	L4.4-5.3l0,0c5.1-3.7,8-9.5,8-15.8c0-10.6-8.3-19.2-18.4-19.2h-27.2c-10.2,0-18.4,8.6-18.4,19.2c0,6.2,2.9,12.1,8,15.8L-30,4.4
	c0.8,0.5,1.6,1,2.4,1.5v25.4c-22.7-2.9-40-17.7-40-35.5c0-4.4-3.6-8-8-8s-8,3.6-8,8C-83.6,24.5-54.9,47.8-19.6,47.8z M-34.3-18.3
	c-0.8-0.7-1.3-1.7-1.3-2.8c0-1.7,1.1-3.2,2.4-3.2H-6c1.3,0,2.4,1.4,2.4,3.2c0,1.1-0.4,2.1-1.3,2.8l-13.6,9.7c-0.7,0.5-1.6,0.5-2.3,0
	L-34.3-18.3z"/>
<circle cx="28.4" cy="-48.2" r="8"/>
<circle cx="-67.6" cy="-48.2" r="8"/>
<path d="M188.5,119.8c17.7,0,32-14.3,32-32s-14.3-32-32-32s-32,14.3-32,32C156.5,105.5,170.8,119.8,188.5,119.8z M188.5,71.8
	c8.8,0,16,7.2,16,16s-7.2,16-16,16s-16-7.2-16-16C172.5,79,179.7,71.8,188.5,71.8z"/>
<path d="M300.5,135.8h-48v-104c0-1.6-0.5-3.2-1.5-4.6l0,0l-56-80c-2.5-3.6-7.5-4.5-11.1-2c-0.8,0.5-1.4,1.2-2,2l-56,80l0,0
	c-0.9,1.3-1.4,2.9-1.4,4.6v50.1c-11-14.7-25.6-26.9-43.6-36.4c17.8-20.9,27.5-48.2,27.5-77.7c0-13-1.9-26-5.9-38.5
	c27.4-14.4,37.8-48.3,23.4-75.7c-14.4-27.4-48.3-37.8-75.7-23.4c-10.3,5.4-18.6,13.9-23.8,24.3c-14.9-4.6-30.4-6.9-46-6.7
	c-15.6-0.1-31.1,2.2-46,6.7c-14-27.6-47.6-38.7-75.2-24.7c-27.6,14-38.7,47.6-24.7,75.2c5.2,10.4,13.6,18.8,23.8,24.3
	c-3.9,12.4-5.9,25.4-5.9,38.5c0,29.5,9.7,56.7,27.5,77.7c-38.9,20.3-61.9,53.7-66.6,97.1c0,0.1,0,0.2,0,0.3l-0.8,11
	c0,0.4,0,0.7,0,1.1c1.3,19.1,13.9,35.7,31.9,42.1c-5.3,10.8-8,22.7-8,34.7c0,39.7,28.7,72,64,72c19,0,36.1-9.4,47.8-24.2
	c20.1,10.9,44.3,10.9,64.4,0c11.7,14.8,28.8,24.2,47.8,24.2c25.1,0,46.8-16.3,57.3-40h182.7c4.4,0,8-3.6,8-8v-112
	C308.5,139.4,304.9,135.8,300.5,135.8z M188.5-34.3l40.6,58.1h-81.3L188.5-34.3z M140.5,39.8h96v96h-89.9c-1.3-8.2-3.3-16.2-6.1-24
	V39.8z M116.5,197c7.5-2.7,14.3-7.2,19.6-13.2h12.4v32h-25.6C121.6,209.3,119.4,203,116.5,197z M131.6,144.2l0.7,10.3
	c-1.2,13.9-11.2,25.4-24.8,28.5c-10-12.2-23.8-20.5-39.2-22.6C66.9,127.8,55.9,97.8,38,76.8C49.3,72,59.8,65.5,69,57.4
	C105.7,75,127.3,104.9,131.6,144.2L131.6,144.2z M76.4-160.2c22.1,0,40,17.9,40,40c0,14.2-7.5,27.4-19.8,34.6
	C91-97.4,83.4-108,74.2-117.1c-9.5-9.3-20.6-17-32.7-22.5C48.5-152.3,61.9-160.2,76.4-160.2z M-155.6-120.2c0-22.1,17.9-40,40-40
	c14.5,0,27.9,7.9,35,20.6c-12.1,5.6-23.2,13.2-32.7,22.5c-9.2,9.1-16.8,19.7-22.4,31.4C-148-92.9-155.6-106-155.6-120.2z
	 M-102.2-105.7c20.3-20,48.8-30.5,82.6-30.5s62.3,10.6,82.6,30.5c19,18.7,29.4,44.8,29.4,73.5S81.9,22.6,63,41.3
	c-20.3,20-48.8,30.5-82.6,30.5s-62.3-10.5-82.6-30.5c-19-18.7-29.4-44.8-29.4-73.5S-121.1-87-102.2-105.7z M-171.5,154.4l0.7-10.3
	c4.3-39.3,25.9-69.2,62.5-86.8C-98.9,65.5-88.4,72-77,76.8c-17.9,21-28.8,51.1-30.3,83.5c-15.4,2.1-29.2,10.4-39.2,22.7
	C-160.2,180-170.3,168.4-171.5,154.4z M-99.5,287.8c-26.5,0-48-25.1-48-56s21.5-56,48-56s48,25.1,48,56S-73,287.8-99.5,287.8z
	 M-19.5,271.8c-8.2,0-16.4-2-23.7-5.8c5.1-10.7,7.7-22.3,7.7-34.2c0-36.6-24.4-66.9-55.8-71.4c1.5-31.2,12.7-59.7,30.7-77.9
	c13.4,3.6,27.1,5.3,41,5.3c13.9,0.1,27.7-1.7,41.1-5.3c18.1,18.2,29.3,46.6,30.8,77.9c-31.4,4.5-55.8,34.8-55.8,71.4
	c0,11.8,2.6,23.5,7.7,34.2C-3.1,269.8-11.3,271.8-19.5,271.8z M60.5,287.8c-26.5,0-48-25.1-48-56s21.5-56,48-56s48,25.1,48,56
	S87,287.8,60.5,287.8z M124.5,231.8h32c4.4,0,8-3.6,8-8v-48c0-4.4-3.6-8-8-8h-10.8c1.5-4.1,2.4-8.4,2.6-12.8c0-0.4,0-0.7,0-1.1
	l-0.1-2.1h32.3v96h-57.6C123.9,242.5,124.5,237.2,124.5,231.8z M292.5,247.8h-96v-96h96V247.8z"/>
<path d="M220.5,231.8h48c4.4,0,8-3.6,8-8c0-1.2-0.3-2.5-0.8-3.6l-24-48c-2-4-6.8-5.6-10.7-3.6c-1.5,0.8-2.8,2-3.6,3.6l-24,48
	c-2,4-0.4,8.8,3.6,10.7C218,231.5,219.3,231.8,220.5,231.8z M244.5,193.7l11.1,22.1h-22.1L244.5,193.7z"/>
</svg>
