<svg width="32" height="32" viewBox="0 0 32 32" fill="none" xmlns="http://www.w3.org/2000/svg">
<path d="M31.5596 27.0026C31.9041 26.7303 32.0767 26.274 31.9677 25.8234L29.5881 15.9848C29.5271 15.7327 29.2732 15.5776 29.0211 15.6386C28.769 15.6996 28.6141 15.9534 28.675 16.2056L31.0547 26.0442C31.0816 26.1558 31.0168 26.2693 30.9071 26.3027L27.8694 27.2275C27.7602 27.2608 27.6432 27.2031 27.6031 27.0962L24.5255 18.8938V5.62713C25.699 6.31707 26.5603 7.46213 26.8843 8.80195L28.2334 14.3798C28.4023 14.9811 29.2721 14.7656 29.1464 14.1589L27.7974 8.58113C27.3456 6.71307 26.0132 5.16376 24.2335 4.4367C24.2151 4.42901 21.0856 3.18682 21.0856 3.18682L20.7211 2.23988C20.4029 1.41407 19.5928 0.858884 18.7097 0.859009H13.2907C12.4077 0.858946 11.5975 1.41407 11.2794 2.23995L10.9149 3.18682C10.9149 3.18682 7.78524 4.42907 7.76692 4.4367C5.98711 5.16376 4.65486 6.71307 4.20299 8.58113L1.29174 20.6177C1.23074 20.8698 1.38574 21.1236 1.63786 21.1846C1.67499 21.1936 1.71205 21.1979 1.74867 21.1979C1.96049 21.1979 2.1528 21.0535 2.2048 20.8385L5.11605 8.80195C5.44011 7.46213 6.30142 6.31707 7.47492 5.62713V8.58113C7.47492 8.84051 7.68524 9.05082 7.94461 9.05082C8.20399 9.05082 8.4143 8.84051 8.4143 8.58113V5.18951L11.1655 4.09795L15.5306 8.46295V27.9936H8.92436C8.64311 27.9936 8.4143 27.7647 8.4143 27.4834V10.4598C8.4143 10.2004 8.20399 9.99013 7.94461 9.99013C7.68524 9.99013 7.47492 10.2004 7.47492 10.4598V18.8938L4.39717 27.0962C4.35705 27.2031 4.24011 27.2608 4.13092 27.2275L1.0933 26.3028C0.983549 26.2693 0.918674 26.1558 0.945674 26.0443L1.7633 22.6638C1.8243 22.4117 1.6693 22.1579 1.41717 22.0969C1.16505 22.0359 0.911174 22.1908 0.850236 22.443L0.0326738 25.8234C-0.0763262 26.2739 0.0962363 26.7303 0.440799 27.0026L0.117799 28.1794C-0.0408262 28.7573 0.298861 29.3615 0.874986 29.5263L2.5838 30.0151C3.13461 30.1772 3.74155 29.8714 3.92736 29.3084L4.30955 28.1694C4.73455 28.1259 5.1183 27.8485 5.27674 27.4262L7.47492 21.5677V27.4834C7.47492 28.1896 7.98261 28.7791 8.65211 28.9069V30.0423C8.65211 30.6479 9.14486 31.1408 9.75061 31.1408H16.0002H22.2499C22.8556 31.1408 23.3483 30.648 23.3483 30.0423V28.9069C24.0178 28.7791 24.5255 28.1896 24.5255 27.4834V21.5677L26.7237 27.4262C26.8821 27.8485 27.2659 28.126 27.6909 28.1695L28.0731 29.3085C28.2589 29.8716 28.8657 30.1772 29.4166 30.0151L31.1254 29.5263C31.7015 29.3614 32.0412 28.7573 31.8826 28.1794L31.5596 27.0026ZM2.84211 29.112L1.1333 28.6231C1.0498 28.5993 1.00061 28.5118 1.02361 28.428L1.31861 27.3532L3.3818 27.9813L3.03674 29.0096C3.00961 29.0905 2.92405 29.1355 2.84211 29.112ZM19.6334 2.22638C19.7218 2.32926 19.7942 2.44707 19.8444 2.57738L20.1731 3.43132L16.5823 7.02207C16.6701 6.53995 16.8089 6.06763 16.9986 5.60913C17.35 4.76176 17.8569 4.00332 18.5054 3.35482L19.6334 2.22638ZM18.7097 1.79838C18.7172 1.79838 18.7247 1.79913 18.7322 1.79926L17.8412 2.6907C17.1052 3.4267 16.5298 4.28751 16.1309 5.24957C16.0846 5.36145 16.0412 5.47413 16.0002 5.58738C15.9591 5.47401 15.9157 5.36126 15.8694 5.24926C15.4706 4.28751 14.8951 3.42663 14.1592 2.6907L13.2681 1.79926C13.2757 1.79913 13.2831 1.79838 13.2907 1.79838H18.7097ZM12.1559 2.57745C12.2061 2.44713 12.2786 2.32932 12.3669 2.22645L13.495 3.35495C14.1434 4.00332 14.6503 4.76176 15.0016 5.60888C15.1915 6.06751 15.3302 6.53995 15.4181 7.02207L11.8273 3.43132L12.1559 2.57745ZM9.59136 30.0423V28.9329H15.5305V30.2014H9.75049C9.66274 30.2014 9.59136 30.13 9.59136 30.0423ZM22.2499 30.2014H16.4699V28.9329H22.409V30.0423C22.409 30.13 22.3376 30.2014 22.2499 30.2014ZM23.5862 27.4835C23.5862 27.7648 23.3574 27.9936 23.076 27.9936H16.4698V8.46301L20.8349 4.09801L23.5861 5.18957V27.4835H23.5862ZM30.8671 28.6232L29.1582 29.1121C29.0762 29.1354 28.9908 29.0906 28.9636 29.0097L28.6186 27.9814L30.6817 27.3533L30.9767 28.4281C30.9997 28.5118 30.9505 28.5993 30.8671 28.6232Z" fill="#454760" stroke="#454760" stroke-width="0.3"/>
<path d="M17.6803 10.5727C17.4209 10.5727 17.2106 10.783 17.2106 11.0424V11.4851C17.2106 11.7445 17.4209 11.9548 17.6803 11.9548C17.9397 11.9548 18.15 11.7445 18.15 11.4851V11.0424C18.15 10.783 17.9398 10.5727 17.6803 10.5727Z" fill="#454760" stroke="#454760" stroke-width="0.3"/>
<path d="M17.6803 15.136C17.4209 15.136 17.2106 15.3464 17.2106 15.6057V16.0485C17.2106 16.3078 17.4209 16.5182 17.6803 16.5182C17.9397 16.5182 18.15 16.3078 18.15 16.0485V15.6057C18.15 15.3464 17.9398 15.136 17.6803 15.136Z" fill="#454760" stroke="#454760" stroke-width="0.3"/>
<path d="M17.6803 19.6994C17.4209 19.6994 17.2106 19.9097 17.2106 20.1691V20.6118C17.2106 20.8712 17.4209 21.0815 17.6803 21.0815C17.9397 21.0815 18.15 20.8712 18.15 20.6118V20.1691C18.15 19.9097 17.9398 19.6994 17.6803 19.6994Z" fill="#454760" stroke="#454760" stroke-width="0.3"/>
<path d="M17.6803 24.2617C17.4209 24.2617 17.2106 24.472 17.2106 24.7313V25.1741C17.2106 25.4335 17.4209 25.6438 17.6803 25.6438C17.9397 25.6438 18.15 25.4335 18.15 25.1741V24.7313C18.15 24.472 17.9398 24.2617 17.6803 24.2617Z" fill="#454760" stroke="#454760" stroke-width="0.3"/>
<path d="M9.53401 25.0284C9.64513 25.0284 9.75669 24.9892 9.84619 24.9095C9.91307 24.85 11.4878 23.4194 11.8623 20.609C11.8966 20.352 11.7159 20.1157 11.4588 20.0815C11.2019 20.0473 10.9655 20.2279 10.9313 20.485C10.761 21.7622 10.3063 22.7052 9.95482 23.2712C9.57176 23.8882 9.22369 24.206 9.22157 24.208C8.89863 24.4919 9.11032 25.0328 9.53401 25.0284Z" fill="#454760" stroke="#454760" stroke-width="0.3"/>
<path d="M20.5417 20.0818C20.2846 20.1161 20.104 20.3523 20.1382 20.6094C20.5128 23.4197 22.0874 24.8503 22.1543 24.9099C22.631 25.3057 23.2259 24.6403 22.7803 24.2095C22.7768 24.2064 22.4288 23.8886 22.0457 23.2716C21.6943 22.7055 21.2395 21.7626 21.0693 20.4853C21.035 20.2282 20.7987 20.0475 20.5417 20.0818Z" fill="#454760" stroke="#454760" stroke-width="0.3"/>
</svg>
